<?xml version="1.0" encoding="UTF-8" standalone="no"?>
<svg
   xmlns:dc="http://purl.org/dc/elements/1.1/"
   xmlns:cc="http://creativecommons.org/ns#"
   xmlns:rdf="http://www.w3.org/1999/02/22-rdf-syntax-ns#"
   xmlns:svg="http://www.w3.org/2000/svg"
   xmlns="http://www.w3.org/2000/svg"
   xmlns:sodipodi="http://sodipodi.sourceforge.net/DTD/sodipodi-0.dtd"
   xmlns:inkscape="http://www.inkscape.org/namespaces/inkscape"
   enable-background="new 0 0 256 256"
   height="244.06779"
   version="1.1"
   viewBox="0 0 244.06779 244.06779"
   width="244.06779"
   xml:space="preserve"
   id="svg18"
   sodipodi:docname="iconfinder_Messages_206461.svg"
   inkscape:version="0.92.3 (2405546, 2018-03-11)"><metadata
     id="metadata24"><rdf:RDF><cc:Work
         rdf:about=""><dc:format>image/svg+xml</dc:format><dc:type
           rdf:resource="http://purl.org/dc/dcmitype/StillImage" /><dc:title></dc:title></cc:Work></rdf:RDF></metadata><defs
     id="defs22" /><sodipodi:namedview
     pagecolor="#ffffff"
     bordercolor="#666666"
     borderopacity="1"
     objecttolerance="10"
     gridtolerance="10"
     guidetolerance="10"
     inkscape:pageopacity="0"
     inkscape:pageshadow="2"
     inkscape:window-width="1920"
     inkscape:window-height="1001"
     id="namedview20"
     showgrid="false"
     inkscape:zoom="0.921875"
     inkscape:cx="-240.81356"
     inkscape:cy="123.66102"
     inkscape:window-x="-9"
     inkscape:window-y="-9"
     inkscape:window-maximized="1"
     inkscape:current-layer="svg18"
     fit-margin-top="0"
     fit-margin-left="0"
     fit-margin-right="0"
     fit-margin-bottom="0" /><g
     id="Layer_1"
     transform="translate(-6.5084746,-7.5932203)" /><g
     id="g831"
     transform="matrix(0.86016949,0,0,0.86016949,11.932203,11.932203)"
     inkscape:export-xdpi="87.192123"
     inkscape:export-ydpi="87.192123"><circle
       r="128"
       style="fill:#0986e6;fill-opacity:1"
       id="circle2"
       cy="128"
       cx="128" /><g
       id="Layer_3"><path
         id="path5"
         d="m 146.75,69.22 h -100 c -6.903,0 -12.5,5.596 -12.5,12.5 v 58.333 c 0,6.903 5.597,12.501 12.5,12.501 h 7.759 0.862 v 17.297 l 22.844,-17.297 h 68.536 c 6.902,0 12.5,-5.598 12.5,-12.501 V 81.72 c -0.001,-6.904 -5.599,-12.5 -12.501,-12.5 z"
         inkscape:connector-curvature="0"
         style="fill:#084049" /></g><g
       id="Layer_2"><path
         id="path8"
         d="m 209.25,110.703 h -100 c -6.903,0 -12.5,5.596 -12.5,12.5 v 58.334 c 0,6.902 5.597,12.5 12.5,12.5 h 5.604 l 22.844,17.297 v -17.297 h 71.553 c 6.902,0 12.5,-5.598 12.5,-12.5 v -58.334 c -0.001,-6.904 -5.599,-12.5 -12.501,-12.5 z"
         inkscape:connector-curvature="0"
         style="fill:#f9f9fa" /></g><g
       id="Layer_4"><circle
         id="circle11"
         r="10"
         cy="152.55499"
         cx="129.509"
         style="fill:#2ab1e0" /><circle
         id="circle13"
         r="10"
         cy="152.55499"
         cx="159.681"
         style="fill:#2ab1e0" /><circle
         id="circle15"
         r="10"
         cy="152.55499"
         cx="188.99001"
         style="fill:#2ab1e0" /></g></g></svg>