<?xml version="1.0" encoding="UTF-8" standalone="no"?>
<svg
   xmlns:dc="http://purl.org/dc/elements/1.1/"
   xmlns:cc="http://creativecommons.org/ns#"
   xmlns:rdf="http://www.w3.org/1999/02/22-rdf-syntax-ns#"
   xmlns:svg="http://www.w3.org/2000/svg"
   xmlns="http://www.w3.org/2000/svg"
   xmlns:sodipodi="http://sodipodi.sourceforge.net/DTD/sodipodi-0.dtd"
   xmlns:inkscape="http://www.inkscape.org/namespaces/inkscape"
   id="Layer_1"
   version="1.1"
   viewBox="0 0 50.754238 50.754238"
   xml:space="preserve"
   sodipodi:docname="iconfinder_annoucement.svg"
   width="50.754238"
   height="50.754238"
   inkscape:version="0.92.3 (2405546, 2018-03-11)"
   inkscape:export-filename="D:\Studia\Studia\Semestr 6\ZPI\woofie-project-front\src\img\iconfinder_annoucement.png"
   inkscape:export-xdpi="378.29001"
   inkscape:export-ydpi="378.29001"><metadata
     id="metadata27"><rdf:RDF><cc:Work
         rdf:about=""><dc:format>image/svg+xml</dc:format><dc:type
           rdf:resource="http://purl.org/dc/dcmitype/StillImage" /><dc:title /></cc:Work></rdf:RDF></metadata><defs
     id="defs25" /><sodipodi:namedview
     pagecolor="#ffffff"
     bordercolor="#666666"
     borderopacity="1"
     objecttolerance="10"
     gridtolerance="10"
     guidetolerance="10"
     inkscape:pageopacity="0"
     inkscape:pageshadow="2"
     inkscape:window-width="1920"
     inkscape:window-height="1001"
     id="namedview23"
     showgrid="false"
     fit-margin-top="0"
     fit-margin-left="0"
     fit-margin-right="0"
     fit-margin-bottom="0"
     inkscape:zoom="4.5384615"
     inkscape:cx="1.0961805"
     inkscape:cy="17.88585"
     inkscape:window-x="-9"
     inkscape:window-y="-9"
     inkscape:window-maximized="1"
     inkscape:current-layer="Layer_1" /><style
     type="text/css"
     id="style2">
	.st0{fill:#231F20;}
</style><circle
     cx="25.377119"
     cy="25.377119"
     r="25.377119"
     id="circle2"
     style="fill:#0986e6;fill-opacity:1;stroke-width:0.19825874" /><path
     style="fill:#ffffff;stroke-width:0.64729255"
     d="m 36.278496,9.3890696 c -0.09426,0.013087 -0.192298,0.049153 -0.291359,0.1125705 -2.097223,1.3425969 -3.486547,3.3597999 -5.514302,4.6998199 -3.247751,2.14624 -6.545278,2.746362 -10.346556,2.81592 -3.307923,0.06053 -10.2646591,-0.09566 -10.6511601,4.44488 -0.238913,2.806692 1.0851601,5.725937 3.3473181,7.257489 0.191161,3.318835 0.250806,6.698034 0.673767,9.984014 0.193002,1.499427 0.767987,2.462618 2.382192,2.642096 1.501434,0.166941 2.888477,-0.498695 3.065892,-2.087521 0.13737,-1.230202 -0.348704,-2.658735 -0.49498,-3.868784 -0.217119,-1.796109 -0.328219,-3.598329 -0.390685,-5.405042 2.861331,0.164233 5.742102,0.09204 8.59178,0.627415 4.025166,0.75622 6.394508,3.447358 9.205953,6.184758 0.451591,0.439698 1.239423,0.120739 1.243243,-0.514844 0.016,-2.6631 0.03201,-5.326098 0.04801,-7.989198 5.800222,-0.264715 5.265432,-8.984368 0.06125,-10.128038 0.01563,-2.601294 0.03073,-5.202492 0.04635,-7.803787 0.0016,-0.268414 -0.12159,-0.4513745 -0.291358,-0.5661634 C 36.832277,9.5372241 36.577185,9.3475995 36.278496,9.3890696 Z M 35.793449,11.45507 35.652736,34.580039 c -1.620008,-1.570496 -3.115001,-2.947511 -4.865365,-3.931692 1.297903,0.72245 2.515302,1.65766 4.194908,3.247991 0.343963,0.325681 0.630737,0.586358 0.637348,0.579408 0.0066,-0.0069 0.03525,-3.931754 0.06291,-8.720907 0.02766,-4.789151 0.06196,-9.954191 0.07781,-11.478884 l 0.0298,-2.772877 -0.10926,0.07615 c -0.05948,0.04167 -0.759278,0.721984 -1.556122,1.513082 -0.16423,0.163045 -0.305014,0.296105 -0.465181,0.451937 0.690286,-0.703441 1.354549,-1.433965 2.133874,-2.089178 z m -3.20826,3.102312 c -0.08272,0.07322 -0.230536,0.21253 -0.269839,0.241695 -1.193986,0.886038 -2.947112,1.814937 -4.853776,2.570913 -0.480927,0.190683 -0.886675,0.335413 -1.268075,0.455248 1.961093,-0.685019 4.094338,-1.633452 5.800694,-2.815918 0.206624,-0.143186 0.401584,-0.295247 0.590996,-0.451938 z m -7.244246,3.491342 c -0.717252,0.152158 -1.465164,0.220689 -2.585812,0.25825 -0.449384,0.01506 -1.053679,0.03829 -1.342569,0.05297 l -0.526433,0.02649 v 5.062363 c 0,4.789024 0.0054,5.060654 0.08278,5.060708 0.123151,8.5e-5 0.902412,0.07828 1.511425,0.13078 0.609012,0.0525 1.047495,0.08026 1.511425,0.130781 1.090864,0.118796 1.933513,0.249415 2.698382,0.397308 -0.21991,-0.04265 -0.439834,-0.08587 -0.670457,-0.120848 -1.17155,-0.177663 -2.354146,-0.307864 -3.53935,-0.407241 -0.532471,-0.04464 -1.064607,-0.06704 -1.597509,-0.100981 v -10.18929 c 1.667737,-0.03652 3.261292,-0.07144 4.458125,-0.301292 z m -5.91492,0.337712 v 10.06182 c -0.167049,-0.0085 -0.334732,-0.02356 -0.501601,-0.03145 -1.479716,-0.06994 -3.266749,0.167342 -4.679954,-0.432072 l -0.0066,-0.09436 c -0.02205,-0.333906 -0.225007,-0.545602 -0.471803,-0.640659 0.07512,0.02895 0.152937,0.05222 0.216864,0.09767 0.124482,0.0885 0.274804,0.390092 0.274804,0.55292 0,0.06726 0.06942,0.111551 0.29136,0.18541 0.655731,0.218211 0.963782,0.251713 2.648718,0.283082 0.885929,0.01649 1.743272,0.03307 1.903766,0.03807 l 0.291359,0.0099 v -5.002768 -5.004422 l -0.77475,0.03311 c -4.568399,0.187245 -6.83751,1.186677 -7.419722,3.272823 -0.119731,0.429035 -0.145247,1.445347 -0.04966,1.95343 0.208178,1.106601 0.935285,2.461375 1.811062,3.375461 0.175411,0.183086 0.192142,0.190226 0.342678,0.144024 0.114175,-0.03504 0.269432,-0.0082 0.422139,0.04304 -0.190742,-0.06159 -0.397929,-0.04697 -0.572786,0.0298 -1.039225,-0.986929 -1.976537,-2.655882 -2.08752,-3.987977 -0.351249,-4.215889 4.03095,-4.747253 8.361673,-4.886885 z m 17.772902,1.304493 c 1.334979,0.510604 2.496301,1.977112 2.706659,3.291033 0.2888,1.803902 -0.784066,3.743467 -2.7497,3.853886 0.01431,-2.38167 0.02873,-4.763249 0.04304,-7.144919 z m -10.177701,9.542009 c 0.840023,0.178615 1.576315,0.405115 2.271276,0.691978 -0.697254,-0.282426 -1.448078,-0.514015 -2.271276,-0.691978 z m -12.679085,0.24004 c 0.369781,0.125817 0.751936,0.22571 1.152193,0.279771 0.36682,0.04954 0.734663,0.08593 1.102529,0.120848 0.05585,1.677206 0.154179,3.348652 0.341022,5.017666 0.06059,0.541253 0.187458,1.09152 0.205276,1.633928 -0.0052,-0.03062 -0.01916,-0.07876 -0.02152,-0.100982 -0.01089,-0.102717 -0.07125,-0.576146 -0.134091,-1.05121 -0.01955,-0.14784 -0.0312,-0.327476 -0.04966,-0.481736 -0.152365,-1.27302 -0.274293,-2.721662 -0.329435,-4.153521 -0.03639,-0.944967 0.02172,-0.846559 -0.531399,-0.897254 -0.464598,-0.04258 -1.159305,-0.165275 -1.453485,-0.256595 l -0.264871,-0.08111 0.02152,0.238384 c 0.08384,0.944462 0.155717,2.24883 0.213553,3.541007 z m 15.139082,0.533055 c 0.210789,0.09093 0.420018,0.169419 0.635693,0.274805 0.147613,0.07213 0.286473,0.158626 0.430417,0.235074 -0.342501,-0.183472 -0.69764,-0.353722 -1.06611,-0.509879 z m -14.834479,4.709753 c 0.0078,0.263835 0.0256,0.585449 0.0298,0.821103 0.02708,1.522408 0.05386,2.104996 0.110916,2.411989 0.147772,0.795152 0.471733,1.631965 0.691977,1.78623 0.158984,0.111361 0.285079,0.08951 0.440349,-0.07781 0.178643,-0.192499 0.259307,-0.325043 0.393997,-0.64397 0.01688,-0.03997 0.04931,-0.08165 0.07284,-0.122503 -0.534071,1.302408 -1.013554,1.251132 -1.435275,-0.187066 -0.380941,-1.098659 -0.302059,-2.659337 -0.304602,-3.987977 z m 2.516282,1.902111 c 0.310434,0.774347 0.12687,1.42737 -0.541332,1.960052 0.0379,-0.04148 0.06631,-0.08049 0.110916,-0.124159 0.505848,-0.495279 0.656129,-0.97731 0.488357,-1.562744 -0.02584,-0.09014 -0.03852,-0.17738 -0.05794,-0.273149 z"
     id="path4"
     inkscape:connector-curvature="0" /></svg>